<svg xmlns="http://www.w3.org/2000/svg" width="560" height="320" viewBox="0 0 560 320">
<rect width="560" height="320" fill="#ffffff"/>
<text x="160" y="24" text-anchor="middle" font-family="Arial, sans-serif" font-size="14" fill="#222">Feature set 08</text>
<path d="M 160.00 160.00 L 160.00 40.00 A 120.00 120.00 0 0 1 230.53 62.92 Z" fill="#4E79A7" stroke="#ffffff" stroke-width="1"/>
<path d="M 160.00 160.00 L 230.53 62.92 A 120.00 120.00 0 0 1 274.13 122.92 Z" fill="#F28E2B" stroke="#ffffff" stroke-width="1"/>
<path d="M 160.00 160.00 L 274.13 122.92 A 120.00 120.00 0 0 1 274.13 197.08 Z" fill="#E15759" stroke="#ffffff" stroke-width="1"/>
<path d="M 160.00 160.00 L 274.13 197.08 A 120.00 120.00 0 0 1 160.00 280.00 Z" fill="#76B7B2" stroke="#ffffff" stroke-width="1"/>
<path d="M 160.00 160.00 L 160.00 280.00 A 120.00 120.00 0 0 1 89.47 257.08 Z" fill="#59A14F" stroke="#ffffff" stroke-width="1"/>
<path d="M 160.00 160.00 L 89.47 257.08 A 120.00 120.00 0 0 1 41.48 141.23 Z" fill="#EDC948" stroke="#ffffff" stroke-width="1"/>
<path d="M 160.00 160.00 L 41.48 141.23 A 120.00 120.00 0 0 1 122.92 45.87 Z" fill="#B07AA1" stroke="#ffffff" stroke-width="1"/>
<path d="M 160.00 160.00 L 122.92 45.87 A 120.00 120.00 0 0 1 141.23 41.48 Z" fill="#9C755F" stroke="#ffffff" stroke-width="1"/>
<path d="M 160.00 160.00 L 141.23 41.48 A 120.00 120.00 0 0 1 160.00 40.00 Z" fill="#BAB0AC" stroke="#ffffff" stroke-width="1"/>
<text x="320" y="28" font-family="Arial, sans-serif" font-size="12" fill="#222">Family (count)</text>
<rect x="320" y="30" width="12" height="12" fill="#4E79A7"/>
<text x="338" y="40" font-family="Arial, sans-serif" font-size="12" fill="#222">A (4)</text>
<rect x="320" y="50" width="12" height="12" fill="#F28E2B"/>
<text x="338" y="60" font-family="Arial, sans-serif" font-size="12" fill="#222">B (4)</text>
<rect x="320" y="70" width="12" height="12" fill="#E15759"/>
<text x="338" y="80" font-family="Arial, sans-serif" font-size="12" fill="#222">C (4)</text>
<rect x="320" y="90" width="12" height="12" fill="#76B7B2"/>
<text x="338" y="100" font-family="Arial, sans-serif" font-size="12" fill="#222">D (8)</text>
<rect x="320" y="110" width="12" height="12" fill="#59A14F"/>
<text x="338" y="120" font-family="Arial, sans-serif" font-size="12" fill="#222">E (4)</text>
<rect x="320" y="130" width="12" height="12" fill="#EDC948"/>
<text x="338" y="140" font-family="Arial, sans-serif" font-size="12" fill="#222">F (7)</text>
<rect x="320" y="150" width="12" height="12" fill="#B07AA1"/>
<text x="338" y="160" font-family="Arial, sans-serif" font-size="12" fill="#222">G (7)</text>
<rect x="320" y="170" width="12" height="12" fill="#9C755F"/>
<text x="338" y="180" font-family="Arial, sans-serif" font-size="12" fill="#222">I (1)</text>
<rect x="320" y="190" width="12" height="12" fill="#BAB0AC"/>
<text x="338" y="200" font-family="Arial, sans-serif" font-size="12" fill="#222">Core (1)</text>
</svg>